<?xml version="1.0" encoding="iso-8859-1"?>
<!-- Generator: Adobe Illustrator 19.0.0, SVG Export Plug-In . SVG Version: 6.00 Build 0)  -->
<svg version="1.1" id="Capa_1" xmlns="http://www.w3.org/2000/svg" xmlns:xlink="http://www.w3.org/1999/xlink" x="0px" y="0px"
	 viewBox="0 0 512 512" style="enable-background:new 0 0 512 512;" xml:space="preserve">
<polygon style="fill:#B4D2D7;" points="287.893,148.246 235.983,128.23 235.983,240.489 287.893,220.473 "/>
<polygon style="fill:#E1EBF0;" points="224.107,148.246 224.107,220.473 255.999,240.489 255.999,128.23 "/>
<path style="fill:#FFCD00;" d="M256,218.873L256,218.873l-20.017,61.225L255.999,512h36.146c0-59.692,23.031-183.566,108.465-210.71
	l7.668-40.145C408.277,261.146,351.602,218.873,256,218.873z"/>
<path style="fill:#FFE477;" d="M103.721,261.149l7.669,40.141C196.824,328.434,219.855,452.308,219.855,512h36.144V218.873
	C160.398,218.873,103.721,261.149,103.721,261.149z"/>
<path style="fill:#FFCD00;" d="M333.544,77.544C333.544,34.717,298.826,0,256,0c0,0,0,0-0.001,0l-20.016,77.544l20.016,77.544l0,0
	C298.826,155.087,333.544,120.37,333.544,77.544z"/>
<path style="fill:#FFE477;" d="M178.456,77.544c0,42.826,34.717,77.543,77.543,77.544V0C213.174,0,178.456,34.718,178.456,77.544z"
	/>
<rect x="413.5" y="297.69" style="fill:#B4D2D7;" width="30" height="67.855"/>
<path style="fill:#C9001C;" d="M448.725,261.149c11.417-28.607,19.055-75.672,19.055-105.678c0-21.693-17.585-39.278-39.278-39.278
	s-39.278,17.585-39.278,39.278c0,30.005,7.637,77.067,19.053,105.675L448.725,261.149z"/>
<rect x="68.5" y="297.69" style="fill:#E1EBF0;" width="30" height="67.855"/>
<path style="fill:#FF1F3E;" d="M103.721,261.149c11.417-28.607,19.055-75.672,19.055-105.678c0-21.693-17.585-39.278-39.278-39.278
	S44.22,133.778,44.22,155.471c0,30.005,7.637,77.067,19.053,105.675L103.721,261.149z"/>
<circle style="fill:#FF9F22;" cx="428.5" cy="285.81" r="31.893"/>
<circle style="fill:#FFCD00;" cx="83.5" cy="285.81" r="31.893"/>
<g>
</g>
<g>
</g>
<g>
</g>
<g>
</g>
<g>
</g>
<g>
</g>
<g>
</g>
<g>
</g>
<g>
</g>
<g>
</g>
<g>
</g>
<g>
</g>
<g>
</g>
<g>
</g>
<g>
</g>
</svg>
