<?xml version="1.0" encoding="UTF-8" standalone="no"?>
<!DOCTYPE svg PUBLIC "-//W3C//DTD SVG 1.1//EN" "http://www.w3.org/Graphics/SVG/1.1/DTD/svg11.dtd">
<svg version="1.1" xmlns="http://www.w3.org/2000/svg" xmlns:xlink="http://www.w3.org/1999/xlink" preserveAspectRatio="xMidYMid meet" viewBox="0 0 500 100" width="500" height="100"><defs><path d="M265.45 32.92L300 38.2L275 63.82L280.9 100L250 82.92L219.1 100L225 63.82L200 38.2L234.55 32.92L250 0L265.45 32.92Z" id="iIwsI3mo"></path><path d="M65.45 32.92L100 38.2L75 63.82L80.9 100L50 82.92L19.1 100L25 63.82L0 38.2L34.55 32.92L50 0L65.45 32.92Z" id="b4j0LOMdl6"></path><path d="M165.45 32.92L200 38.2L175 63.82L180.9 100L150 82.92L119.1 100L125 63.82L100 38.2L134.55 32.92L150 0L165.45 32.92Z" id="e1qI7xFRl0"></path><path d="M362.42 32.92L396.97 38.2L371.97 63.82L377.87 100L346.97 82.92L316.07 100L321.97 63.82L296.97 38.2L331.52 32.92L346.97 0L362.42 32.92Z" id="a1diTIBZEy"></path><path d="M465.45 33.75L500 38.77L475 63.14L480.9 97.55L450 81.31L419.1 97.55L425 63.14L400 38.77L434.55 33.75L450 2.45L465.45 33.75Z" id="cas8KSq3T"></path></defs><g><g><g><use xlink:href="#iIwsI3mo" opacity="1" fill="#fac917" fill-opacity="1"></use><g><use xlink:href="#iIwsI3mo" opacity="1" fill-opacity="0" stroke="#000000" stroke-width="1" stroke-opacity="0"></use></g></g><g><use xlink:href="#b4j0LOMdl6" opacity="1" fill="#fac917" fill-opacity="1"></use><g><use xlink:href="#b4j0LOMdl6" opacity="1" fill-opacity="0" stroke="#000000" stroke-width="1" stroke-opacity="0"></use></g></g><g><use xlink:href="#e1qI7xFRl0" opacity="1" fill="#fac917" fill-opacity="1"></use><g><use xlink:href="#e1qI7xFRl0" opacity="1" fill-opacity="0" stroke="#000000" stroke-width="1" stroke-opacity="0"></use></g></g><g><use xlink:href="#a1diTIBZEy" opacity="1" fill="#fac917" fill-opacity="1"></use><g><use xlink:href="#a1diTIBZEy" opacity="1" fill-opacity="0" stroke="#000000" stroke-width="1" stroke-opacity="0"></use></g></g><g><use xlink:href="#cas8KSq3T" opacity="1" fill="#fac917" fill-opacity="1"></use><g><use xlink:href="#cas8KSq3T" opacity="1" fill-opacity="0" stroke="#000000" stroke-width="1" stroke-opacity="0"></use></g></g></g></g></svg>