<?xml version="1.0" encoding="UTF-8" standalone="no"?>
<!DOCTYPE svg PUBLIC "-//W3C//DTD SVG 1.1//EN" "http://www.w3.org/Graphics/SVG/1.1/DTD/svg11.dtd">
<svg version="1.1" xmlns="http://www.w3.org/2000/svg" xmlns:xlink="http://www.w3.org/1999/xlink" preserveAspectRatio="xMidYMid meet" viewBox="0 0 500 100" width="500" height="100"><defs><path d="M450.1 0L450.15 0.01L450.2 0.01L450.25 0.02L450.3 0.03L450.35 0.04L450.4 0.05L450.45 0.06L450.5 0.07L450.54 0.09L450.59 0.1L450.64 0.12L450.68 0.14L450.73 0.16L450.77 0.18L450.82 0.21L450.86 0.23L450.9 0.26L450.95 0.28L450.99 0.31L451.03 0.34L451.07 0.37L451.11 0.4L451.14 0.43L451.18 0.47L451.22 0.5L451.25 0.54L451.29 0.58L451.32 0.61L451.36 0.65L451.39 0.69L451.42 0.73L451.45 0.78L451.48 0.82L451.5 0.86L451.53 0.91L451.56 0.95L451.58 1L451.6 1.05L466.08 31.84L498.47 36.78L498.52 36.79L498.57 36.8L498.62 36.81L498.67 36.82L498.71 36.84L498.76 36.85L498.81 36.87L498.86 36.89L498.9 36.91L498.95 36.93L498.99 36.95L499.04 36.97L499.08 37L499.12 37.02L499.16 37.05L499.21 37.08L499.25 37.11L499.29 37.14L499.32 37.17L499.36 37.2L499.4 37.24L499.44 37.27L499.47 37.31L499.51 37.35L499.54 37.38L499.57 37.42L499.6 37.46L499.63 37.5L499.66 37.54L499.69 37.59L499.72 37.63L499.75 37.68L499.77 37.72L499.79 37.77L499.82 37.81L499.84 37.86L499.86 37.91L499.88 37.96L499.9 38.01L499.91 38.06L499.93 38.11L499.94 38.16L499.95 38.21L499.96 38.27L499.97 38.32L499.98 38.37L499.99 38.42L499.99 38.47L500 38.53L500 38.58L500 38.63L500 38.68L500 38.73L499.99 38.78L499.99 38.84L499.98 38.89L499.98 38.94L499.97 38.99L499.96 39.04L499.95 39.09L499.94 39.14L499.92 39.19L499.91 39.24L499.89 39.29L499.87 39.34L499.85 39.38L499.83 39.43L499.81 39.48L499.79 39.52L499.77 39.57L499.74 39.61L499.71 39.66L499.69 39.7L499.66 39.74L499.63 39.79L499.6 39.83L499.56 39.87L499.53 39.91L499.5 39.95L499.46 39.98L476.03 63.96L481.56 97.8L481.57 97.85L481.57 97.91L481.58 97.96L481.58 98.01L481.58 98.07L481.58 98.12L481.58 98.17L481.58 98.22L481.58 98.27L481.57 98.33L481.57 98.38L481.56 98.43L481.55 98.48L481.54 98.53L481.53 98.58L481.52 98.63L481.5 98.68L481.49 98.73L481.47 98.78L481.45 98.83L481.43 98.87L481.41 98.92L481.39 98.97L481.37 99.01L481.34 99.06L481.32 99.1L481.29 99.15L481.27 99.19L481.24 99.23L481.21 99.27L481.18 99.31L481.14 99.35L481.11 99.39L481.08 99.43L481.04 99.47L481 99.5L480.97 99.54L480.93 99.57L480.89 99.61L480.85 99.64L480.81 99.67L480.76 99.7L480.72 99.73L480.68 99.75L480.63 99.78L480.59 99.8L480.54 99.83L480.5 99.85L480.45 99.87L480.41 99.89L480.36 99.9L480.31 99.92L480.26 99.93L480.22 99.95L480.17 99.96L480.12 99.97L480.07 99.98L480.02 99.99L479.97 99.99L479.92 100L479.87 100L479.83 100L479.78 100L479.73 100L479.68 100L479.63 99.99L479.58 99.99L479.53 99.98L479.48 99.97L479.43 99.96L479.38 99.95L479.34 99.94L479.29 99.92L479.24 99.91L479.19 99.89L479.15 99.87L479.1 99.85L479.05 99.83L479.01 99.81L478.96 99.78L450 83.8L421.03 99.78L421.02 99.79L421 99.8L420.98 99.81L420.96 99.82L420.94 99.83L420.92 99.84L420.9 99.85L420.88 99.86L420.85 99.87L420.83 99.88L420.81 99.88L420.79 99.89L420.77 99.9L420.75 99.91L420.73 99.91L420.71 99.92L420.69 99.92L420.67 99.93L420.65 99.94L420.63 99.94L420.61 99.95L420.59 99.95L420.56 99.96L420.54 99.96L420.52 99.97L420.5 99.97L420.48 99.97L420.46 99.98L420.44 99.98L420.42 99.98L420.39 99.98L420.37 99.99L420.35 99.99L420.33 99.99L420.31 99.99L420.29 99.99L420.27 99.99L420.25 100L420.22 100L420.2 100L420.17 100L420.15 99.99L420.12 99.99L420.09 99.99L420.06 99.99L420.04 99.99L420.01 99.98L419.98 99.98L419.95 99.98L419.93 99.97L419.9 99.97L419.87 99.96L419.84 99.96L419.82 99.95L419.79 99.94L419.76 99.94L419.73 99.93L419.71 99.92L419.68 99.91L419.65 99.91L419.63 99.9L419.6 99.89L419.57 99.88L419.55 99.87L419.52 99.86L419.5 99.84L419.47 99.83L419.44 99.82L419.42 99.81L419.39 99.79L419.37 99.78L419.34 99.77L419.32 99.75L419.29 99.74L419.27 99.72L419.25 99.7L419.22 99.69L419.2 99.67L419.17 99.65L419.15 99.64L419.11 99.6L419.07 99.57L419.03 99.54L418.99 99.5L418.96 99.47L418.92 99.43L418.89 99.39L418.85 99.35L418.82 99.31L418.79 99.27L418.76 99.23L418.73 99.19L418.7 99.14L418.68 99.1L418.65 99.06L418.63 99.01L418.61 98.97L418.58 98.92L418.56 98.87L418.54 98.82L418.53 98.78L418.51 98.73L418.49 98.68L418.48 98.63L418.47 98.58L418.46 98.53L418.45 98.48L418.44 98.43L418.43 98.38L418.42 98.32L418.42 98.27L418.42 98.22L418.41 98.17L418.41 98.12L418.41 98.06L418.42 98.01L418.42 97.96L418.42 97.91L418.43 97.85L418.44 97.8L423.97 63.95L400.54 39.98L400.5 39.95L400.47 39.91L400.44 39.87L400.4 39.83L400.37 39.79L400.34 39.74L400.31 39.7L400.29 39.66L400.26 39.61L400.23 39.57L400.21 39.52L400.19 39.48L400.17 39.43L400.15 39.38L400.13 39.33L400.11 39.29L400.09 39.24L400.08 39.19L400.06 39.14L400.05 39.09L400.04 39.04L400.03 38.99L400.02 38.94L400.02 38.89L400.01 38.84L400.01 38.78L400 38.73L400 38.68L400 38.63L400 38.58L400 38.53L400.01 38.47L400.01 38.42L400.02 38.37L400.03 38.32L400.04 38.27L400.05 38.21L400.06 38.16L400.07 38.11L400.09 38.06L400.1 38.01L400.12 37.96L400.14 37.91L400.16 37.86L400.18 37.81L400.2 37.77L400.23 37.72L400.25 37.68L400.28 37.63L400.31 37.59L400.34 37.55L400.36 37.5L400.4 37.46L400.43 37.42L400.46 37.38L400.49 37.35L400.53 37.31L400.56 37.27L400.6 37.24L400.64 37.2L400.67 37.17L400.71 37.14L400.75 37.11L400.79 37.08L400.83 37.05L400.88 37.03L400.92 37L400.96 36.97L401.01 36.95L401.05 36.93L401.1 36.91L401.14 36.89L401.19 36.87L401.24 36.85L401.29 36.84L401.33 36.82L401.38 36.81L401.43 36.8L401.48 36.79L401.53 36.78L433.91 31.84L448.4 1.05L448.42 1L448.44 0.95L448.47 0.91L448.5 0.86L448.52 0.82L448.55 0.78L448.58 0.73L448.61 0.69L448.64 0.65L448.68 0.61L448.71 0.58L448.75 0.54L448.78 0.5L448.82 0.47L448.86 0.43L448.89 0.4L448.93 0.37L448.97 0.34L449.01 0.31L449.06 0.28L449.1 0.26L449.14 0.23L449.18 0.21L449.23 0.18L449.27 0.16L449.32 0.14L449.36 0.12L449.41 0.1L449.46 0.09L449.5 0.07L449.55 0.06L449.6 0.05L449.65 0.04L449.7 0.03L449.75 0.02L449.8 0.01L449.85 0.01L449.9 0L449.95 0L450 0L450.05 0L450.1 0ZM436.69 34.43L436.66 34.47L436.64 34.51L436.62 34.55L436.6 34.59L436.57 34.63L436.55 34.67L436.52 34.7L436.49 34.74L436.47 34.77L436.44 34.81L436.41 34.84L436.38 34.87L436.35 34.91L436.32 34.94L436.29 34.97L436.25 35L436.22 35.03L436.19 35.05L436.15 35.08L436.12 35.11L436.08 35.13L436.05 35.16L436.01 35.18L435.97 35.2L435.93 35.22L435.9 35.24L435.86 35.26L435.82 35.28L435.78 35.3L435.74 35.32L435.7 35.33L435.66 35.35L435.61 35.36L435.57 35.37L435.53 35.38L435.49 35.39L435.44 35.4L435.4 35.41L435.36 35.42L405.64 39.95L427.14 61.95L427.18 61.99L427.21 62.02L427.23 62.05L427.26 62.09L427.29 62.12L427.32 62.16L427.34 62.2L427.37 62.23L427.39 62.27L427.42 62.31L427.44 62.35L427.46 62.39L427.48 62.43L427.5 62.47L427.52 62.51L427.54 62.55L427.55 62.59L427.57 62.63L427.58 62.68L427.6 62.72L427.61 62.76L427.62 62.8L427.63 62.85L427.64 62.89L427.65 62.94L427.66 62.98L427.66 63.03L427.67 63.07L427.68 63.11L427.68 63.16L427.68 63.21L427.68 63.25L427.68 63.3L427.68 63.34L427.68 63.39L427.68 63.43L427.68 63.48L427.67 63.52L427.66 63.57L427.66 63.62L422.58 94.68L449.17 80.02L449.21 79.99L449.25 79.97L449.29 79.96L449.33 79.94L449.37 79.92L449.41 79.9L449.45 79.89L449.49 79.88L449.53 79.86L449.57 79.85L449.62 79.84L449.66 79.83L449.7 79.83L449.74 79.82L449.79 79.81L449.83 79.81L449.87 79.8L449.91 79.8L449.96 79.8L450 79.8L450.04 79.8L450.09 79.8L450.13 79.8L450.17 79.81L450.21 79.81L450.26 79.82L450.3 79.83L450.34 79.83L450.38 79.84L450.43 79.85L450.47 79.86L450.51 79.88L450.55 79.89L450.59 79.9L450.63 79.92L450.67 79.94L450.71 79.96L450.75 79.97L450.79 79.99L450.83 80.02L477.42 94.68L472.34 63.62L472.34 63.57L472.33 63.52L472.32 63.48L472.32 63.43L472.32 63.39L472.32 63.34L472.32 63.3L472.32 63.25L472.32 63.21L472.32 63.16L472.32 63.12L472.33 63.07L472.34 63.03L472.34 62.98L472.35 62.94L472.36 62.89L472.37 62.85L472.38 62.8L472.39 62.76L472.4 62.72L472.42 62.68L472.43 62.63L472.45 62.59L472.46 62.55L472.48 62.51L472.5 62.47L472.52 62.43L472.54 62.39L472.56 62.35L472.58 62.31L472.61 62.27L472.63 62.23L472.66 62.2L472.68 62.16L472.71 62.12L472.74 62.09L472.76 62.05L472.79 62.02L472.82 61.99L472.86 61.95L494.36 39.95L464.64 35.42L464.6 35.41L464.55 35.4L464.51 35.39L464.47 35.38L464.43 35.37L464.39 35.36L464.34 35.34L464.3 35.33L464.26 35.31L464.22 35.3L464.18 35.28L464.14 35.26L464.1 35.24L464.07 35.22L464.03 35.2L463.99 35.18L463.95 35.15L463.92 35.13L463.88 35.1L463.85 35.08L463.81 35.05L463.78 35.02L463.75 35L463.71 34.97L463.68 34.94L463.65 34.9L463.62 34.87L463.59 34.84L463.56 34.81L463.53 34.77L463.51 34.74L463.48 34.7L463.45 34.66L463.43 34.63L463.4 34.59L463.38 34.55L463.36 34.51L463.33 34.47L463.31 34.43L463.29 34.39L450 6.13L436.71 34.39L436.69 34.43Z" id="c1WKSaaFWm"></path><path d="M265.45 32.92L300 38.2L275 63.82L280.9 100L250 82.92L219.1 100L225 63.82L200 38.2L234.55 32.92L250 0L265.45 32.92Z" id="iIwsI3mo"></path><path d="M65.45 32.92L100 38.2L75 63.82L80.9 100L50 82.92L19.1 100L25 63.82L0 38.2L34.55 32.92L50 0L65.45 32.92Z" id="b4j0LOMdl6"></path><path d="M165.45 32.92L200 38.2L175 63.82L180.9 100L150 82.92L119.1 100L125 63.82L100 38.2L134.55 32.92L150 0L165.45 32.92Z" id="e1qI7xFRl0"></path><path d="M362.42 32.92L396.97 38.2L371.97 63.82L377.87 100L346.97 82.92L316.07 100L321.97 63.82L296.97 38.2L331.52 32.92L346.97 0L362.42 32.92Z" id="a1diTIBZEy"></path></defs><g><g><g><use xlink:href="#c1WKSaaFWm" opacity="1" fill="#000000" fill-opacity="1"></use><g><use xlink:href="#c1WKSaaFWm" opacity="1" fill-opacity="0" stroke="#000000" stroke-width="1" stroke-opacity="0"></use></g></g><g><use xlink:href="#iIwsI3mo" opacity="1" fill="#fac917" fill-opacity="1"></use><g><use xlink:href="#iIwsI3mo" opacity="1" fill-opacity="0" stroke="#000000" stroke-width="1" stroke-opacity="0"></use></g></g><g><use xlink:href="#b4j0LOMdl6" opacity="1" fill="#fac917" fill-opacity="1"></use><g><use xlink:href="#b4j0LOMdl6" opacity="1" fill-opacity="0" stroke="#000000" stroke-width="1" stroke-opacity="0"></use></g></g><g><use xlink:href="#e1qI7xFRl0" opacity="1" fill="#fac917" fill-opacity="1"></use><g><use xlink:href="#e1qI7xFRl0" opacity="1" fill-opacity="0" stroke="#000000" stroke-width="1" stroke-opacity="0"></use></g></g><g><use xlink:href="#a1diTIBZEy" opacity="1" fill="#fac917" fill-opacity="1"></use><g><use xlink:href="#a1diTIBZEy" opacity="1" fill-opacity="0" stroke="#000000" stroke-width="1" stroke-opacity="0"></use></g></g></g></g></svg>