<?xml version="1.0" encoding="UTF-8" standalone="no"?>
<!DOCTYPE svg PUBLIC "-//W3C//DTD SVG 1.1//EN" "http://www.w3.org/Graphics/SVG/1.1/DTD/svg11.dtd">
<svg version="1.1" xmlns="http://www.w3.org/2000/svg" xmlns:xlink="http://www.w3.org/1999/xlink" preserveAspectRatio="xMidYMid meet" viewBox="0 0 500 100" width="500" height="100"><defs><path d="M265.45 32.92L300 38.2L275 63.82L280.9 100L250 82.92L219.1 100L225 63.82L200 38.2L234.55 32.92L250 0L265.45 32.92Z" id="g5kBkTy6mg"></path><path d="M65.45 32.92L100 38.2L75 63.82L80.9 100L50 82.92L19.1 100L25 63.82L0 38.2L34.55 32.92L50 0L65.45 32.92Z" id="b4j0LOMdl6"></path><path d="M165.45 32.92L200 38.2L175 63.82L180.9 100L150 82.92L119.1 100L125 63.82L100 38.2L134.55 32.92L150 0L165.45 32.92Z" id="e1qI7xFRl0"></path><path d="M450.1 2.36L450.15 2.36L450.2 2.37L450.25 2.37L450.3 2.38L450.35 2.39L450.4 2.4L450.45 2.41L450.5 2.43L450.54 2.44L450.59 2.46L450.64 2.47L450.68 2.49L450.73 2.51L450.77 2.53L450.82 2.55L450.86 2.58L450.9 2.6L450.95 2.63L450.99 2.65L451.03 2.68L451.07 2.71L451.11 2.74L451.15 2.77L451.18 2.8L451.22 2.84L451.26 2.87L451.29 2.91L451.32 2.94L451.36 2.98L451.39 3.02L451.42 3.06L451.45 3.1L451.48 3.14L451.51 3.18L451.53 3.22L451.56 3.27L451.58 3.31L451.6 3.36L466.09 32.7L498.47 37.4L498.52 37.41L498.57 37.42L498.62 37.43L498.67 37.45L498.71 37.46L498.76 37.47L498.81 37.49L498.86 37.51L498.9 37.53L498.95 37.55L498.99 37.57L499.04 37.59L499.08 37.61L499.12 37.64L499.17 37.66L499.21 37.69L499.25 37.72L499.29 37.75L499.33 37.78L499.36 37.81L499.4 37.84L499.44 37.87L499.47 37.91L499.51 37.94L499.54 37.98L499.57 38.02L499.6 38.05L499.64 38.09L499.66 38.13L499.69 38.17L499.72 38.21L499.75 38.26L499.77 38.3L499.8 38.34L499.82 38.39L499.84 38.43L499.86 38.48L499.88 38.53L499.9 38.58L499.91 38.62L499.93 38.67L499.94 38.72L499.95 38.77L499.97 38.82L499.97 38.87L499.98 38.92L499.99 38.97L499.99 39.02L500 39.07L500 39.12L500 39.17L500 39.21L500 39.26L500 39.31L499.99 39.36L499.99 39.41L499.98 39.46L499.97 39.51L499.96 39.56L499.95 39.6L499.94 39.65L499.92 39.7L499.91 39.75L499.89 39.79L499.87 39.84L499.86 39.88L499.84 39.93L499.81 39.97L499.79 40.02L499.77 40.06L499.74 40.1L499.72 40.15L499.69 40.19L499.66 40.23L499.63 40.27L499.6 40.31L499.57 40.35L499.53 40.38L499.5 40.42L499.46 40.46L476.03 63.3L481.56 95.55L481.57 95.6L481.57 95.65L481.58 95.7L481.58 95.75L481.58 95.8L481.59 95.85L481.58 95.9L481.58 95.95L481.58 96L481.57 96.05L481.57 96.1L481.56 96.15L481.55 96.19L481.54 96.24L481.53 96.29L481.52 96.34L481.5 96.39L481.49 96.43L481.47 96.48L481.45 96.52L481.43 96.57L481.41 96.61L481.39 96.66L481.37 96.7L481.35 96.75L481.32 96.79L481.29 96.83L481.27 96.87L481.24 96.91L481.21 96.95L481.18 96.99L481.15 97.03L481.11 97.06L481.08 97.1L481.04 97.14L481.01 97.17L480.97 97.2L480.93 97.24L480.89 97.27L480.85 97.3L480.81 97.33L480.77 97.36L480.72 97.38L480.68 97.41L480.63 97.43L480.59 97.46L480.54 97.48L480.5 97.5L480.45 97.52L480.41 97.54L480.36 97.55L480.31 97.57L480.26 97.58L480.22 97.59L480.17 97.6L480.12 97.61L480.07 97.62L480.02 97.63L479.97 97.63L479.93 97.64L479.88 97.64L479.83 97.64L479.78 97.64L479.73 97.64L479.68 97.64L479.63 97.64L479.58 97.63L479.53 97.62L479.48 97.61L479.43 97.61L479.39 97.59L479.34 97.58L479.29 97.57L479.24 97.55L479.19 97.54L479.15 97.52L479.1 97.5L479.05 97.48L479.01 97.46L478.96 97.43L450 82.21L421.04 97.43L421.02 97.44L421 97.45L420.98 97.46L420.96 97.47L420.94 97.48L420.92 97.49L420.9 97.5L420.88 97.51L420.86 97.52L420.84 97.52L420.81 97.53L420.79 97.54L420.77 97.55L420.75 97.55L420.73 97.56L420.71 97.57L420.69 97.57L420.67 97.58L420.65 97.58L420.63 97.59L420.61 97.59L420.59 97.6L420.57 97.6L420.54 97.61L420.52 97.61L420.5 97.61L420.48 97.62L420.46 97.62L420.44 97.62L420.42 97.63L420.4 97.63L420.37 97.63L420.35 97.63L420.33 97.63L420.31 97.64L420.29 97.64L420.27 97.64L420.25 97.64L420.22 97.64L420.2 97.64L420.18 97.64L420.15 97.64L420.12 97.64L420.09 97.64L420.06 97.63L420.04 97.63L420.01 97.63L419.98 97.62L419.95 97.62L419.93 97.62L419.9 97.61L419.87 97.61L419.84 97.6L419.82 97.6L419.79 97.59L419.76 97.58L419.74 97.58L419.71 97.57L419.68 97.56L419.65 97.55L419.63 97.54L419.6 97.54L419.58 97.53L419.55 97.52L419.52 97.5L419.5 97.49L419.47 97.48L419.45 97.47L419.42 97.46L419.39 97.45L419.37 97.43L419.34 97.42L419.32 97.41L419.29 97.39L419.27 97.38L419.25 97.36L419.22 97.35L419.2 97.33L419.17 97.31L419.15 97.3L419.11 97.27L419.07 97.23L419.03 97.2L418.99 97.17L418.96 97.13L418.92 97.1L418.89 97.06L418.85 97.03L418.82 96.99L418.79 96.95L418.76 96.91L418.73 96.87L418.7 96.83L418.68 96.79L418.65 96.74L418.63 96.7L418.61 96.66L418.58 96.61L418.56 96.57L418.55 96.52L418.53 96.48L418.51 96.43L418.5 96.38L418.48 96.34L418.47 96.29L418.46 96.24L418.45 96.19L418.44 96.14L418.43 96.1L418.42 96.05L418.42 96L418.42 95.95L418.41 95.9L418.41 95.85L418.41 95.8L418.42 95.75L418.42 95.7L418.43 95.65L418.43 95.6L418.44 95.55L423.97 63.29L400.54 40.46L400.5 40.42L400.47 40.38L400.44 40.35L400.4 40.31L400.37 40.27L400.34 40.23L400.31 40.19L400.29 40.15L400.26 40.1L400.23 40.06L400.21 40.02L400.19 39.97L400.17 39.93L400.15 39.88L400.13 39.84L400.11 39.79L400.09 39.75L400.08 39.7L400.07 39.65L400.05 39.6L400.04 39.56L400.03 39.51L400.02 39.46L400.02 39.41L400.01 39.36L400.01 39.31L400 39.26L400 39.21L400 39.17L400 39.12L400 39.07L400.01 39.02L400.01 38.97L400.02 38.92L400.03 38.87L400.04 38.82L400.05 38.77L400.06 38.72L400.07 38.67L400.09 38.62L400.1 38.58L400.12 38.53L400.14 38.48L400.16 38.43L400.18 38.39L400.21 38.34L400.23 38.3L400.25 38.26L400.28 38.22L400.31 38.17L400.34 38.13L400.37 38.09L400.4 38.05L400.43 38.02L400.46 37.98L400.49 37.94L400.53 37.91L400.56 37.87L400.6 37.84L400.64 37.81L400.67 37.78L400.71 37.75L400.75 37.72L400.79 37.69L400.84 37.66L400.88 37.64L400.92 37.61L400.96 37.59L401.01 37.57L401.05 37.55L401.1 37.53L401.14 37.51L401.19 37.49L401.24 37.47L401.29 37.46L401.34 37.45L401.38 37.43L401.43 37.42L401.48 37.41L401.53 37.4L433.91 32.7L448.4 3.36L448.42 3.31L448.44 3.27L448.47 3.22L448.5 3.18L448.52 3.14L448.55 3.1L448.58 3.06L448.61 3.02L448.65 2.98L448.68 2.94L448.71 2.91L448.75 2.87L448.78 2.84L448.82 2.8L448.86 2.77L448.9 2.74L448.93 2.71L448.97 2.68L449.02 2.65L449.06 2.63L449.1 2.6L449.14 2.58L449.18 2.55L449.23 2.53L449.27 2.51L449.32 2.49L449.36 2.47L449.41 2.46L449.46 2.44L449.51 2.43L449.55 2.41L449.6 2.4L449.65 2.39L449.7 2.38L449.75 2.37L449.8 2.37L449.85 2.36L449.9 2.36L449.95 2.36L450 2.36L450.05 2.36L450.1 2.36ZM436.69 35.17L436.67 35.21L436.64 35.24L436.62 35.28L436.6 35.32L436.57 35.35L436.55 35.39L436.52 35.42L436.5 35.46L436.47 35.49L436.44 35.52L436.41 35.56L436.38 35.59L436.35 35.62L436.32 35.65L436.29 35.68L436.25 35.7L436.22 35.73L436.19 35.76L436.15 35.78L436.12 35.81L436.08 35.83L436.05 35.86L436.01 35.88L435.97 35.9L435.94 35.92L435.9 35.94L435.86 35.96L435.82 35.98L435.78 35.99L435.74 36.01L435.7 36.02L435.66 36.04L435.62 36.05L435.57 36.06L435.53 36.07L435.49 36.08L435.45 36.09L435.4 36.1L435.36 36.11L405.64 40.42L427.14 61.39L427.18 61.42L427.21 61.45L427.24 61.49L427.26 61.52L427.29 61.55L427.32 61.59L427.34 61.62L427.37 61.66L427.39 61.69L427.42 61.73L427.44 61.77L427.46 61.8L427.48 61.84L427.5 61.88L427.52 61.92L427.54 61.96L427.55 62L427.57 62.04L427.58 62.08L427.6 62.12L427.61 62.16L427.62 62.2L427.63 62.24L427.64 62.28L427.65 62.33L427.66 62.37L427.67 62.41L427.67 62.45L427.68 62.5L427.68 62.54L427.68 62.58L427.68 62.63L427.68 62.67L427.68 62.71L427.68 62.76L427.68 62.8L427.68 62.84L427.67 62.89L427.67 62.93L427.66 62.97L422.58 92.58L449.17 78.6L449.21 78.58L449.25 78.56L449.29 78.54L449.33 78.53L449.37 78.51L449.41 78.5L449.45 78.48L449.49 78.47L449.53 78.46L449.57 78.45L449.62 78.44L449.66 78.43L449.7 78.42L449.74 78.41L449.79 78.41L449.83 78.4L449.87 78.4L449.91 78.4L449.96 78.39L450 78.39L450.04 78.39L450.09 78.4L450.13 78.4L450.17 78.4L450.21 78.41L450.26 78.41L450.3 78.42L450.34 78.43L450.38 78.44L450.43 78.45L450.47 78.46L450.51 78.47L450.55 78.48L450.59 78.5L450.63 78.51L450.67 78.53L450.72 78.54L450.76 78.56L450.8 78.58L450.83 78.6L477.42 92.58L472.34 62.97L472.34 62.93L472.33 62.89L472.33 62.84L472.32 62.8L472.32 62.76L472.32 62.71L472.32 62.67L472.32 62.63L472.32 62.58L472.32 62.54L472.33 62.5L472.33 62.45L472.34 62.41L472.34 62.37L472.35 62.33L472.36 62.28L472.37 62.24L472.38 62.2L472.39 62.16L472.4 62.12L472.42 62.08L472.43 62.04L472.45 62L472.47 61.96L472.48 61.92L472.5 61.88L472.52 61.84L472.54 61.8L472.56 61.77L472.59 61.73L472.61 61.69L472.63 61.66L472.66 61.62L472.68 61.59L472.71 61.55L472.74 61.52L472.77 61.49L472.8 61.45L472.83 61.42L472.86 61.39L494.37 40.42L464.64 36.11L464.6 36.1L464.56 36.09L464.51 36.08L464.47 36.07L464.43 36.06L464.39 36.05L464.34 36.04L464.3 36.02L464.26 36.01L464.22 35.99L464.18 35.97L464.14 35.96L464.1 35.94L464.07 35.92L464.03 35.9L463.99 35.88L463.95 35.85L463.92 35.83L463.88 35.81L463.85 35.78L463.81 35.76L463.78 35.73L463.75 35.7L463.71 35.67L463.68 35.65L463.65 35.62L463.62 35.59L463.59 35.55L463.56 35.52L463.53 35.49L463.51 35.46L463.48 35.42L463.45 35.39L463.43 35.35L463.4 35.32L463.38 35.28L463.36 35.24L463.34 35.2L463.31 35.17L463.29 35.13L450 8.19L436.71 35.13L436.69 35.17Z" id="e41U5VEnEK"></path><path d="M350.1 2.36L350.15 2.36L350.2 2.37L350.25 2.37L350.3 2.38L350.35 2.39L350.4 2.4L350.45 2.41L350.5 2.43L350.54 2.44L350.59 2.46L350.64 2.47L350.68 2.49L350.73 2.51L350.77 2.53L350.82 2.55L350.86 2.58L350.9 2.6L350.95 2.63L350.99 2.65L351.03 2.68L351.07 2.71L351.11 2.74L351.14 2.77L351.18 2.8L351.22 2.84L351.25 2.87L351.29 2.91L351.32 2.94L351.36 2.98L351.39 3.02L351.42 3.06L351.45 3.1L351.48 3.14L351.5 3.18L351.53 3.22L351.56 3.27L351.58 3.31L351.6 3.36L366.08 32.7L398.47 37.4L398.52 37.41L398.57 37.42L398.62 37.43L398.67 37.45L398.71 37.46L398.76 37.47L398.81 37.49L398.86 37.51L398.9 37.53L398.95 37.55L398.99 37.57L399.04 37.59L399.08 37.61L399.12 37.64L399.17 37.66L399.21 37.69L399.25 37.72L399.29 37.75L399.33 37.78L399.36 37.81L399.4 37.84L399.44 37.87L399.47 37.91L399.51 37.94L399.54 37.98L399.57 38.02L399.6 38.05L399.63 38.09L399.66 38.13L399.69 38.17L399.72 38.21L399.75 38.26L399.77 38.3L399.79 38.34L399.82 38.39L399.84 38.43L399.86 38.48L399.88 38.53L399.9 38.58L399.91 38.62L399.93 38.67L399.94 38.72L399.95 38.77L399.96 38.82L399.97 38.87L399.98 38.92L399.99 38.97L399.99 39.02L400 39.07L400 39.12L400 39.17L400 39.21L400 39.26L400 39.31L399.99 39.36L399.99 39.41L399.98 39.46L399.97 39.51L399.96 39.56L399.95 39.6L399.94 39.65L399.92 39.7L399.91 39.75L399.89 39.79L399.87 39.84L399.85 39.88L399.83 39.93L399.81 39.97L399.79 40.02L399.77 40.06L399.74 40.1L399.72 40.15L399.69 40.19L399.66 40.23L399.63 40.27L399.6 40.31L399.57 40.35L399.53 40.38L399.5 40.42L399.46 40.46L376.03 63.3L381.56 95.55L381.57 95.6L381.57 95.65L381.58 95.7L381.58 95.75L381.58 95.8L381.58 95.85L381.58 95.9L381.58 95.95L381.58 96L381.57 96.05L381.57 96.1L381.56 96.15L381.55 96.19L381.54 96.24L381.53 96.29L381.52 96.34L381.5 96.39L381.49 96.43L381.47 96.48L381.45 96.52L381.43 96.57L381.41 96.61L381.39 96.66L381.37 96.7L381.34 96.75L381.32 96.79L381.29 96.83L381.27 96.87L381.24 96.91L381.21 96.95L381.18 96.99L381.14 97.03L381.11 97.06L381.08 97.1L381.04 97.14L381 97.17L380.97 97.2L380.93 97.24L380.89 97.27L380.85 97.3L380.81 97.33L380.76 97.36L380.72 97.38L380.68 97.41L380.63 97.43L380.59 97.46L380.54 97.48L380.5 97.5L380.45 97.52L380.41 97.54L380.36 97.55L380.31 97.57L380.26 97.58L380.22 97.59L380.17 97.6L380.12 97.61L380.07 97.62L380.02 97.63L379.97 97.63L379.92 97.64L379.88 97.64L379.83 97.64L379.78 97.64L379.73 97.64L379.68 97.64L379.63 97.64L379.58 97.63L379.53 97.62L379.48 97.61L379.43 97.61L379.39 97.59L379.34 97.58L379.29 97.57L379.24 97.55L379.19 97.54L379.15 97.52L379.1 97.5L379.05 97.48L379.01 97.46L378.96 97.43L350 82.21L321.03 97.43L321.02 97.44L321 97.45L320.98 97.46L320.96 97.47L320.94 97.48L320.92 97.49L320.9 97.5L320.88 97.51L320.86 97.52L320.83 97.52L320.81 97.53L320.79 97.54L320.77 97.55L320.75 97.55L320.73 97.56L320.71 97.57L320.69 97.57L320.67 97.58L320.65 97.58L320.63 97.59L320.61 97.59L320.59 97.6L320.56 97.6L320.54 97.61L320.52 97.61L320.5 97.61L320.48 97.62L320.46 97.62L320.44 97.62L320.42 97.63L320.39 97.63L320.37 97.63L320.35 97.63L320.33 97.63L320.31 97.64L320.29 97.64L320.27 97.64L320.25 97.64L320.22 97.64L320.2 97.64L320.17 97.64L320.15 97.64L320.12 97.64L320.09 97.64L320.06 97.63L320.04 97.63L320.01 97.63L319.98 97.62L319.95 97.62L319.93 97.62L319.9 97.61L319.87 97.61L319.84 97.6L319.82 97.6L319.79 97.59L319.76 97.58L319.73 97.58L319.71 97.57L319.68 97.56L319.65 97.55L319.63 97.54L319.6 97.54L319.57 97.53L319.55 97.52L319.52 97.5L319.5 97.49L319.47 97.48L319.44 97.47L319.42 97.46L319.39 97.45L319.37 97.43L319.34 97.42L319.32 97.41L319.29 97.39L319.27 97.38L319.25 97.36L319.22 97.35L319.2 97.33L319.17 97.31L319.15 97.3L319.11 97.27L319.07 97.23L319.03 97.2L318.99 97.17L318.96 97.13L318.92 97.1L318.89 97.06L318.85 97.03L318.82 96.99L318.79 96.95L318.76 96.91L318.73 96.87L318.7 96.83L318.68 96.79L318.65 96.74L318.63 96.7L318.61 96.66L318.58 96.61L318.56 96.57L318.54 96.52L318.53 96.48L318.51 96.43L318.49 96.38L318.48 96.34L318.47 96.29L318.46 96.24L318.45 96.19L318.44 96.14L318.43 96.1L318.42 96.05L318.42 96L318.42 95.95L318.41 95.9L318.41 95.85L318.41 95.8L318.42 95.75L318.42 95.7L318.42 95.65L318.43 95.6L318.44 95.55L323.97 63.29L300.54 40.46L300.5 40.42L300.47 40.38L300.44 40.35L300.4 40.31L300.37 40.27L300.34 40.23L300.31 40.19L300.29 40.15L300.26 40.1L300.23 40.06L300.21 40.02L300.19 39.97L300.17 39.93L300.15 39.88L300.13 39.84L300.11 39.79L300.09 39.75L300.08 39.7L300.06 39.65L300.05 39.6L300.04 39.56L300.03 39.51L300.02 39.46L300.02 39.41L300.01 39.36L300.01 39.31L300 39.26L300 39.21L300 39.17L300 39.12L300 39.07L300.01 39.02L300.01 38.97L300.02 38.92L300.03 38.87L300.04 38.82L300.05 38.77L300.06 38.72L300.07 38.67L300.09 38.62L300.1 38.58L300.12 38.53L300.14 38.48L300.16 38.43L300.18 38.39L300.2 38.34L300.23 38.3L300.25 38.26L300.28 38.22L300.31 38.17L300.34 38.13L300.36 38.09L300.4 38.05L300.43 38.02L300.46 37.98L300.49 37.94L300.53 37.91L300.56 37.87L300.6 37.84L300.64 37.81L300.67 37.78L300.71 37.75L300.75 37.72L300.79 37.69L300.83 37.66L300.88 37.64L300.92 37.61L300.96 37.59L301.01 37.57L301.05 37.55L301.1 37.53L301.14 37.51L301.19 37.49L301.24 37.47L301.29 37.46L301.33 37.45L301.38 37.43L301.43 37.42L301.48 37.41L301.53 37.4L333.91 32.7L348.4 3.36L348.42 3.31L348.44 3.27L348.47 3.22L348.5 3.18L348.52 3.14L348.55 3.1L348.58 3.06L348.61 3.02L348.65 2.98L348.68 2.94L348.71 2.91L348.75 2.87L348.78 2.84L348.82 2.8L348.86 2.77L348.89 2.74L348.93 2.71L348.97 2.68L349.01 2.65L349.06 2.63L349.1 2.6L349.14 2.58L349.18 2.55L349.23 2.53L349.27 2.51L349.32 2.49L349.36 2.47L349.41 2.46L349.46 2.44L349.5 2.43L349.55 2.41L349.6 2.4L349.65 2.39L349.7 2.38L349.75 2.37L349.8 2.37L349.85 2.36L349.9 2.36L349.95 2.36L350 2.36L350.05 2.36L350.1 2.36ZM336.69 35.17L336.67 35.21L336.64 35.24L336.62 35.28L336.6 35.32L336.57 35.35L336.55 35.39L336.52 35.42L336.49 35.46L336.47 35.49L336.44 35.52L336.41 35.56L336.38 35.59L336.35 35.62L336.32 35.65L336.29 35.68L336.25 35.7L336.22 35.73L336.19 35.76L336.15 35.78L336.12 35.81L336.08 35.83L336.05 35.86L336.01 35.88L335.97 35.9L335.93 35.92L335.9 35.94L335.86 35.96L335.82 35.98L335.78 35.99L335.74 36.01L335.7 36.02L335.66 36.04L335.61 36.05L335.57 36.06L335.53 36.07L335.49 36.08L335.45 36.09L335.4 36.1L335.36 36.11L305.64 40.42L327.14 61.39L327.18 61.42L327.21 61.45L327.23 61.49L327.26 61.52L327.29 61.55L327.32 61.59L327.34 61.62L327.37 61.66L327.39 61.69L327.42 61.73L327.44 61.77L327.46 61.8L327.48 61.84L327.5 61.88L327.52 61.92L327.54 61.96L327.55 62L327.57 62.04L327.58 62.08L327.6 62.12L327.61 62.16L327.62 62.2L327.63 62.24L327.64 62.28L327.65 62.33L327.66 62.37L327.66 62.41L327.67 62.45L327.68 62.5L327.68 62.54L327.68 62.58L327.68 62.63L327.68 62.67L327.68 62.71L327.68 62.76L327.68 62.8L327.68 62.84L327.67 62.89L327.66 62.93L327.66 62.97L322.58 92.58L349.17 78.6L349.21 78.58L349.25 78.56L349.29 78.54L349.33 78.53L349.37 78.51L349.41 78.5L349.45 78.48L349.49 78.47L349.53 78.46L349.57 78.45L349.62 78.44L349.66 78.43L349.7 78.42L349.74 78.41L349.79 78.41L349.83 78.4L349.87 78.4L349.91 78.4L349.96 78.39L350 78.39L350.04 78.39L350.09 78.4L350.13 78.4L350.17 78.4L350.21 78.41L350.26 78.41L350.3 78.42L350.34 78.43L350.38 78.44L350.43 78.45L350.47 78.46L350.51 78.47L350.55 78.48L350.59 78.5L350.63 78.51L350.67 78.53L350.71 78.54L350.75 78.56L350.79 78.58L350.83 78.6L377.42 92.58L372.34 62.97L372.34 62.93L372.33 62.89L372.32 62.84L372.32 62.8L372.32 62.76L372.32 62.71L372.32 62.67L372.32 62.63L372.32 62.58L372.32 62.54L372.33 62.5L372.33 62.45L372.34 62.41L372.34 62.37L372.35 62.33L372.36 62.28L372.37 62.24L372.38 62.2L372.39 62.16L372.4 62.12L372.42 62.08L372.43 62.04L372.45 62L372.46 61.96L372.48 61.92L372.5 61.88L372.52 61.84L372.54 61.8L372.56 61.77L372.58 61.73L372.61 61.69L372.63 61.66L372.66 61.62L372.68 61.59L372.71 61.55L372.74 61.52L372.77 61.49L372.79 61.45L372.83 61.42L372.86 61.39L394.36 40.42L364.64 36.11L364.6 36.1L364.56 36.09L364.51 36.08L364.47 36.07L364.43 36.06L364.39 36.05L364.34 36.04L364.3 36.02L364.26 36.01L364.22 35.99L364.18 35.97L364.14 35.96L364.1 35.94L364.07 35.92L364.03 35.9L363.99 35.88L363.95 35.85L363.92 35.83L363.88 35.81L363.85 35.78L363.81 35.76L363.78 35.73L363.75 35.7L363.71 35.67L363.68 35.65L363.65 35.62L363.62 35.59L363.59 35.55L363.56 35.52L363.53 35.49L363.51 35.46L363.48 35.42L363.45 35.39L363.43 35.35L363.4 35.32L363.38 35.28L363.36 35.24L363.34 35.2L363.31 35.17L363.29 35.13L350 8.19L336.71 35.13L336.69 35.17Z" id="cir3X4s6P"></path></defs><g><g><g><use xlink:href="#g5kBkTy6mg" opacity="1" fill="#fac917" fill-opacity="1"></use><g><use xlink:href="#g5kBkTy6mg" opacity="1" fill-opacity="0" stroke="#000000" stroke-width="1" stroke-opacity="0"></use></g></g><g><use xlink:href="#b4j0LOMdl6" opacity="1" fill="#fac917" fill-opacity="1"></use><g><use xlink:href="#b4j0LOMdl6" opacity="1" fill-opacity="0" stroke="#000000" stroke-width="1" stroke-opacity="0"></use></g></g><g><use xlink:href="#e1qI7xFRl0" opacity="1" fill="#fac917" fill-opacity="1"></use><g><use xlink:href="#e1qI7xFRl0" opacity="1" fill-opacity="0" stroke="#000000" stroke-width="1" stroke-opacity="0"></use></g></g><g><use xlink:href="#e41U5VEnEK" opacity="1" fill="#000000" fill-opacity="1"></use><g><use xlink:href="#e41U5VEnEK" opacity="1" fill-opacity="0" stroke="#000000" stroke-width="1" stroke-opacity="0"></use></g></g><g><use xlink:href="#cir3X4s6P" opacity="1" fill="#000000" fill-opacity="1"></use><g><use xlink:href="#cir3X4s6P" opacity="1" fill-opacity="0" stroke="#000000" stroke-width="1" stroke-opacity="0"></use></g></g></g></g></svg>